PathFileType   4   (X/Y/Z)
DataRate  CameraRate  NumFrames  NumMarkers  Units  OrigDataRate  OrigDataStartFrame  OrigNumFrames  
  120.0      120.0        10         39         mm      120.0          61        240
Frame#      Time	midhip		hip_r		hip_l		knee_r		knee_l		ankle_r		ankle_l		midasis		asis_r		asis_l		psis_r		psis_l		epicondLat_r		epicondLat_l		epicondMed_r		epicondMed_l		malleolusLat_r		malleolusLat_l		malleolusMedv_r		malleolusMedv_l		heel_r		heel_l		sternalnotch		xyphoidprocess		neck		subclavicle_r		subclavicle_l		toe_r		toe_l		thighwand_r		thighwand_l		upperleg1_r		upperleg1_l		upperleg2_r		upperleg2_l		shankwand_r		shankwand_l		lowerleg1_r		lowerleg1_l		
              X1          Y1          Z1          X2          Y2          Z2          X3          Y3          Z3          X4          Y4          Z4          X5          Y5          Z5          X6          Y6          Z6          X7          Y7          Z7          X8          Y8          Z8          X9          Y9          Z9          X10          Y10          Z10          X11          Y11          Z11          X12          Y12          Z12          X13          Y13          Z13          X14          Y14          Z14          X15          Y15          Z15          X16          Y16          Z16          X17          Y17          Z17          X18          Y18          Z18          X19          Y19          Z19          X20          Y20          Z20          X21          Y21          Z21          X22          Y22          Z22          X23          Y23          Z23          X24          Y24          Z24          X25          Y25          Z25          X26          Y26          Z26          X27          Y27          Z27          X28          Y28          Z28          X29          Y29          Z29          X30          Y30          Z30          X31          Y31          Z31          X32          Y32          Z32          X33          Y33          Z33          X34          Y34          Z34          X35          Y35          Z35          X36          Y36          Z36          X37          Y37          Z37          X38          Y38          Z38          X39          Y39          Z39          

	61	0.50833	762.461	762.696	-252.023	769.371	760.940	-182.348	755.552	764.451	-321.698	758.339	424.462	-165.368	740.966	418.201	-324.702	719.338	64.991	-157.709	715.167	66.107	-329.749	833.152	845.797	-256.939	844.041	843.031	-147.129	822.263	848.564	-366.749	656.602	868.824	-205.757	650.038	869.048	-259.904	759.248	427.280	-108.946	737.080	418.849	-380.564	737.499	419.298	-220.214	752.583	421.692	-265.629	713.250	66.440	-120.735	703.359	67.466	-364.259	718.772	61.186	-191.279	717.085	65.892	-296.337	672.094	52.682	-149.440	669.937	47.039	-308.494	802.960	1195.461	-261.452	813.227	1093.842	-267.076	695.914	1262.757	-240.244	812.333	1194.641	-205.319	799.986	1196.634	-312.137	806.158	48.175	-144.688	804.080	44.666	-351.093	892.255	554.770	-153.818	862.356	571.834	-396.553	845.372	598.858	-119.698	848.187	613.312	-327.448	827.963	543.456	-117.593	835.624	555.423	-322.360	846.805	180.632	-136.494	695.158	174.059	-450.155	769.247	166.626	-150.595	707.705	162.124	-372.350
	62	0.51667	762.377	762.689	-252.002	769.298	760.914	-182.329	755.455	764.464	-321.676	758.385	424.500	-165.351	740.782	418.120	-324.762	719.149	65.018	-157.707	715.154	66.098	-329.721	833.047	845.808	-256.906	843.955	843.011	-147.107	822.138	848.606	-366.705	656.509	868.838	-205.618	650.111	868.934	-259.878	759.283	427.318	-108.929	736.978	418.779	-380.629	737.164	419.793	-220.362	753.022	421.716	-264.827	713.051	66.470	-120.734	703.394	67.440	-364.249	718.630	61.239	-191.277	717.162	65.860	-296.333	670.868	53.364	-149.630	670.022	47.009	-308.483	802.812	1195.477	-261.446	813.182	1093.981	-267.218	695.864	1262.610	-240.162	812.212	1194.678	-205.282	799.794	1196.832	-312.116	806.181	48.148	-144.679	804.079	44.683	-351.085	892.266	554.785	-153.816	862.342	571.864	-396.497	845.533	599.074	-119.632	848.005	613.214	-327.343	827.936	543.465	-117.600	835.682	555.668	-322.089	846.822	180.661	-136.466	695.196	174.047	-450.162	769.311	166.548	-150.498	707.782	162.058	-372.366
	63	0.52500	762.313	762.684	-251.986	769.240	760.896	-182.313	755.386	764.473	-321.658	758.420	424.534	-165.338	740.675	418.079	-324.765	719.148	64.997	-157.733	715.168	66.079	-329.702	832.956	845.827	-256.875	843.871	843.009	-147.095	822.041	848.646	-366.655	656.417	868.859	-205.465	650.191	868.800	-259.834	759.308	427.353	-108.916	736.913	418.740	-380.635	737.322	419.876	-220.425	752.667	422.066	-264.786	713.044	66.445	-120.761	703.433	67.414	-364.238	718.609	61.328	-191.317	717.118	65.910	-296.308	670.890	53.228	-149.537	670.058	46.994	-308.447	802.653	1195.502	-261.445	813.035	1094.081	-267.289	695.685	1262.684	-240.216	812.153	1194.703	-205.196	799.568	1196.987	-312.075	806.192	48.149	-144.689	804.088	44.704	-351.096	892.254	554.799	-153.819	862.320	571.933	-396.446	845.556	599.305	-119.621	848.045	613.221	-327.264	827.943	543.498	-117.602	835.653	555.982	-322.044	846.821	180.676	-136.449	695.231	174.031	-450.164	769.413	166.541	-150.399	707.729	162.124	-372.380
	64	0.53333	762.289	762.688	-251.980	769.211	760.892	-182.307	755.366	764.483	-321.653	758.448	424.543	-165.329	740.714	418.100	-324.703	719.252	64.955	-157.762	715.216	66.042	-329.702	832.896	845.862	-256.852	843.802	843.034	-147.087	821.990	848.691	-366.617	656.324	868.875	-205.325	650.264	868.672	-259.780	759.326	427.363	-108.907	736.925	418.752	-380.571	737.908	419.608	-220.846	752.530	422.432	-264.363	713.143	66.399	-120.791	703.463	67.383	-364.232	718.508	61.290	-191.331	716.941	65.982	-296.269	670.932	52.959	-149.351	670.009	47.036	-308.584	802.487	1195.536	-261.450	812.877	1094.072	-267.289	695.532	1262.699	-240.203	812.006	1194.721	-205.168	799.407	1196.957	-312.203	806.199	48.178	-144.716	804.105	44.715	-351.113	892.239	554.825	-153.835	862.297	572.015	-396.417	845.417	599.402	-119.752	848.023	613.246	-327.312	827.872	543.398	-117.763	835.639	556.257	-321.969	846.809	180.671	-136.445	695.257	174.014	-450.164	769.174	166.384	-150.295	707.553	162.302	-372.337
	65	0.54167	762.292	762.699	-251.983	769.206	760.907	-182.309	755.377	764.491	-321.657	758.462	424.516	-165.317	740.842	418.156	-324.602	719.763	64.816	-157.830	715.262	66.000	-329.717	832.855	845.912	-256.846	843.748	843.089	-147.085	821.962	848.735	-366.607	656.229	868.883	-205.221	650.309	868.557	-259.724	759.337	427.338	-108.895	736.975	418.793	-380.465	738.228	419.597	-221.132	752.785	422.378	-264.216	713.652	66.243	-120.859	703.463	67.359	-364.231	718.912	61.054	-191.380	716.934	65.955	-296.267	672.114	52.236	-149.214	670.056	47.060	-308.719	802.315	1195.559	-261.467	812.577	1094.039	-267.342	695.445	1262.643	-240.107	811.661	1194.707	-205.179	799.220	1196.919	-312.384	806.202	48.217	-144.761	804.130	44.713	-351.117	892.269	554.873	-153.875	862.280	572.065	-396.424	845.427	599.454	-119.808	847.954	613.324	-327.445	827.962	543.409	-117.885	835.648	556.210	-322.007	846.801	180.648	-136.451	695.268	173.989	-450.158	769.022	166.363	-150.437	707.559	162.309	-372.315
	66	0.55000	762.293	762.719	-251.988	769.205	760.936	-182.313	755.380	764.501	-321.662	758.474	424.471	-165.301	740.980	418.212	-324.503	720.379	64.653	-157.899	715.277	65.976	-329.736	832.808	845.972	-256.854	843.699	843.164	-147.077	821.917	848.780	-366.630	656.128	868.885	-205.164	650.309	868.467	-259.674	759.349	427.296	-108.879	737.031	418.834	-380.360	737.913	419.708	-220.711	752.961	421.962	-264.825	714.269	66.061	-120.926	703.429	67.353	-364.232	719.494	60.937	-191.465	717.109	65.870	-296.306	674.457	51.144	-149.161	670.209	47.026	-308.699	802.141	1195.561	-261.493	812.352	1094.070	-267.372	695.310	1262.660	-240.086	811.428	1194.698	-205.097	799.053	1196.983	-312.407	806.192	48.250	-144.818	804.160	44.695	-351.098	892.339	554.937	-153.930	862.257	572.090	-396.442	845.439	599.432	-119.697	847.862	613.422	-327.474	828.051	543.576	-117.744	835.578	555.937	-322.181	846.798	180.614	-136.455	695.268	173.959	-450.141	769.148	166.530	-150.588	707.766	162.169	-372.345
	67	0.55833	762.287	762.747	-251.984	769.209	760.976	-182.311	755.364	764.518	-321.657	758.491	424.437	-165.282	741.024	418.217	-324.451	720.945	64.512	-157.945	715.248	65.975	-329.748	832.754	846.039	-256.868	843.665	843.247	-147.055	821.844	848.831	-366.680	656.026	868.878	-205.153	650.258	868.415	-259.637	759.364	427.264	-108.859	737.038	418.833	-380.306	737.571	419.791	-220.472	752.663	421.821	-265.191	714.836	65.903	-120.972	703.377	67.363	-364.236	719.961	60.870	-191.521	717.154	65.823	-296.329	675.659	50.688	-149.105	670.222	47.037	-308.583	801.957	1195.555	-261.521	812.367	1094.112	-267.251	695.022	1262.684	-240.070	811.424	1194.816	-205.022	798.875	1196.955	-312.476	806.174	48.276	-144.859	804.176	44.667	-351.064	892.407	555.006	-153.983	862.240	572.119	-396.437	845.380	599.297	-119.574	847.811	613.411	-327.420	828.023	543.643	-117.623	835.433	555.723	-322.216	846.790	180.595	-136.442	695.271	173.929	-450.120	769.284	166.580	-150.587	707.868	162.139	-372.332
	68	0.56667	762.264	762.780	-251.975	769.201	761.019	-182.302	755.327	764.541	-321.647	758.501	424.428	-165.263	740.899	418.145	-324.465	721.397	64.415	-157.973	715.185	65.994	-329.745	832.690	846.106	-256.881	843.629	843.330	-147.023	821.751	848.882	-366.740	655.925	868.866	-205.168	650.174	868.397	-259.620	759.373	427.256	-108.840	736.950	418.764	-380.323	737.338	420.056	-220.653	752.077	422.150	-265.224	715.289	65.793	-120.999	703.336	67.377	-364.241	720.377	60.762	-191.542	717.023	65.861	-296.318	675.654	50.652	-148.965	670.126	47.085	-308.369	801.766	1195.553	-261.544	812.263	1094.048	-267.130	694.844	1262.647	-239.943	811.380	1194.882	-205.050	798.637	1196.788	-312.615	806.165	48.300	-144.869	804.169	44.647	-351.019	892.481	555.083	-154.032	862.233	572.154	-396.404	845.444	599.213	-119.489	847.943	613.462	-327.309	827.973	543.633	-117.607	835.342	555.757	-322.140	846.782	180.612	-136.405	695.282	173.904	-450.105	769.384	166.569	-150.587	707.782	162.205	-372.323
	69	0.57500	762.195	762.808	-251.968	769.136	761.052	-182.296	755.253	764.564	-321.639	758.500	424.442	-165.248	740.650	418.033	-324.539	721.670	64.378	-157.992	715.102	66.029	-329.725	832.596	846.155	-256.881	843.546	843.385	-146.977	821.646	848.925	-366.784	655.811	868.861	-205.187	650.074	868.397	-259.614	759.372	427.272	-108.826	736.797	418.663	-380.403	737.706	419.929	-220.784	752.101	422.449	-264.800	715.563	65.748	-121.018	703.311	67.393	-364.240	720.571	60.736	-191.552	716.944	65.911	-296.307	675.617	50.597	-148.911	670.064	47.046	-308.281	801.583	1195.554	-261.565	811.942	1093.979	-267.157	694.825	1262.627	-239.882	811.134	1194.816	-205.119	798.446	1196.732	-312.612	806.167	48.313	-144.855	804.154	44.646	-350.975	892.548	555.153	-154.065	862.230	572.198	-396.344	845.375	599.437	-119.515	847.940	613.537	-327.240	827.930	543.569	-117.638	835.367	556.059	-322.004	846.781	180.660	-136.359	695.297	173.892	-450.100	769.377	166.542	-150.522	707.733	162.244	-372.346
	70	0.58333	762.085	762.824	-251.947	769.024	761.067	-182.275	755.146	764.581	-321.619	758.476	424.478	-165.227	740.430	417.957	-324.635	721.752	64.391	-157.999	715.026	66.070	-329.699	832.478	846.178	-256.855	843.427	843.405	-146.922	821.529	848.951	-366.788	655.690	868.862	-205.185	649.959	868.405	-259.613	759.357	427.308	-108.805	736.676	418.602	-380.505	738.575	419.375	-220.689	752.461	422.691	-263.931	715.652	65.755	-121.024	703.293	67.414	-364.236	720.626	60.745	-191.552	716.884	65.909	-296.293	675.687	50.683	-148.991	670.044	46.969	-308.305	801.408	1195.554	-261.589	811.605	1094.018	-267.204	694.716	1262.645	-239.904	810.743	1194.799	-205.185	798.288	1196.821	-312.476	806.169	48.302	-144.830	804.140	44.661	-350.950	892.600	555.208	-154.072	862.223	572.252	-396.267	845.240	599.814	-119.666	847.824	613.481	-327.314	828.002	543.521	-117.693	835.471	556.396	-321.821	846.783	180.720	-136.329	695.316	173.895	-450.106	769.353	166.530	-150.474	707.710	162.239	-372.322
